<svg xmlns="http://www.w3.org/2000/svg" viewBox="0 0 32 32" width="32" height="32"><circle cx="16" cy="16" r="16" fill="#bdd1df"/><path d="M8.609 12.18c.487.27 6.238 4.01 6.489 4.15a2.148 2.148 0 001.81 0c.251-.14 6-3.88 6.489-4.15s.95-1.12.054-1.12h-14.9c-.891 0-.43.85.058 1.12zm15 2.06c-.554.3-6.357 3.97-6.7 4.15a2.148 2.148 0 01-1.81 0c-.339-.18-6.142-3.85-6.7-4.15-.39-.21-.386.03-.386.22v7.56a1.185 1.185 0 00.99.99H23a1.186 1.186 0 00.991-.99v-7.56c0-.19.003-.43-.391-.22z" fill="#fff"/></svg>