<svg xmlns="http://www.w3.org/2000/svg" viewBox="0 0 32 32" width="32" height="32"><circle cx="16" cy="16" r="16" fill="#bdd1df"/><path d="M24.984 11.66a6.733 6.733 0 01-2 .55 3.551 3.551 0 001.531-1.95 6.818 6.818 0 01-2.211.85 3.477 3.477 0 00-6.023 2.42 3.649 3.649 0 00.09.81 9.843 9.843 0 01-7.175-3.7 3.584 3.584 0 00-.472 1.78 3.534 3.534 0 001.549 2.94 3.271 3.271 0 01-1.577-.44v.05a3.516 3.516 0 002.792 3.46 3.46 3.46 0 01-.917.13 2.852 2.852 0 01-.655-.07 3.492 3.492 0 003.253 2.46 6.907 6.907 0 01-4.324 1.51 5.7 5.7 0 01-.83-.05A9.686 9.686 0 0013.351 24a9.922 9.922 0 009.905-10.06c0-.15 0-.3-.01-.45a7.318 7.318 0 001.738-1.83z" fill="#fff"/></svg>